<?xml version="1.0" encoding="utf-8"?>
<!-- Generator: Adobe Illustrator 16.0.0, SVG Export Plug-In . SVG Version: 6.00 Build 0)  -->
<!DOCTYPE svg PUBLIC "-//W3C//DTD SVG 1.1//EN" "http://www.w3.org/Graphics/SVG/1.1/DTD/svg11.dtd">
<svg version="1.1" id="Layer_1" xmlns="http://www.w3.org/2000/svg" xmlns:xlink="http://www.w3.org/1999/xlink" x="0px" y="0px"
	 width="960px" height="560px" viewBox="0 0 960 560" enable-background="new 0 0 960 560" xml:space="preserve">
<g>
	<path fill="#007F3D" d="M646.867,222.664c6.94-11.148,12.578-24.484,13.18-38.914c0.488-11.75-3.854-23.367-11.926-31.871
		c-7.965-8.395-18.668-13.086-30.133-13.207c-0.16-0.004-0.313-0.004-0.474-0.004c-10.094,0-19.645,3.496-27.301,9.918
		c-31.422-24.242-70.402-37.551-110.215-37.551c-25.984,0-51.832,5.672-75.301,16.438c-0.863-9.774-5.004-19.118-11.781-26.262
		c-7.965-8.395-18.668-13.086-30.133-13.207C362.625,88,362.468,88,362.312,88c-11.289,0-21.902,4.359-29.937,12.309
		c-8.148,8.058-12.633,18.808-12.633,30.269c0,18.942,8.891,36.145,18.504,49.215c-11.281,14.289-20.285,30.098-26.793,47.047
		c-1.113,2.898,0.332,6.144,3.231,7.258c0.66,0.254,1.339,0.375,2.011,0.375c2.258,0,4.387-1.371,5.246-3.606
		c5.743-14.957,13.563-28.969,23.282-41.738c-0.133,1.324-0.219,2.656-0.219,3.98v27.293c0,5.379,2.957,10.266,7.723,12.758
		c2.105,1.102,4.394,1.649,6.679,1.649c2.875,0,5.742-0.868,8.203-2.579l20.133-13.98c5.637-3.91,12.238-5.977,19.098-5.977h25.91
		c10.051,0,19.5-3.914,26.605-11.019l25.57-25.57c8.59-8.594,9.066-22.496,1.078-31.653l-12.449-14.277
		c-1.758-2.012-2.465-4.699-2.043-7.254c2.828-0.145,5.656-0.23,8.488-0.23c37.016,0,73.258,12.269,102.59,34.632
		c-4.965,7.086-7.645,15.5-7.645,24.344c0,7.785,1.512,15.27,3.944,22.301c-1.655,12.223,0.134,24.621,5.188,35.875l10.93,24.332
		c5.853,13.027,18.863,21.449,33.148,21.449c7.25,0,14.262-2.137,20.276-6.183l0.349-0.231c0.313,4.215,0.469,8.461,0.469,12.73
		c0,93.323-75.926,169.245-169.25,169.245s-169.25-75.926-169.25-169.249c0-13.099,1.5-26.142,4.461-38.771
		c0.707-3.023-1.164-6.043-4.188-6.754c-3.019-0.711-6.043,1.168-6.75,4.188c-3.156,13.468-4.757,27.379-4.757,41.334
		c0,48.211,18.773,93.535,52.863,127.621C386.468,453.227,431.789,472,480,472s93.532-18.773,127.622-52.863
		s52.863-79.41,52.863-127.621C660.484,267.66,655.895,244.508,646.867,222.664L646.867,222.664z M340.276,108.293
		c5.914-5.848,13.727-9.059,22.039-9.059c0.114,0,0.231,0,0.348,0.004c8.398,0.09,16.246,3.535,22.102,9.703
		c5.992,6.313,9.218,14.942,8.851,23.672c-1.043,25.032-21.16,47.563-29.765,56.086c-0.844,0.84-2.223,0.84-3.063,0.004
		c-8.965-8.883-29.812-32.328-29.812-58.125C330.977,122.141,334.276,114.227,340.276,108.293L340.276,108.293z M465.085,137.137
		l12.453,14.277c4.118,4.723,3.875,11.895-0.56,16.324l-25.565,25.571c-4.984,4.984-11.613,7.73-18.664,7.73h-25.91
		c-9.16,0-17.981,2.762-25.504,7.984L361.203,223c-1.418,0.988-2.758,0.473-3.269,0.207c-0.512-0.269-1.696-1.078-1.696-2.805v-21.3
		c1.903,0.96,3.989,1.449,6.078,1.449c3.422,0,6.844-1.289,9.446-3.871c10.836-10.739,28.515-31.614,32.367-56.473
		c17.484-8.777,36.535-14.465,56.051-16.766C460.063,128.363,461.733,133.289,465.085,137.137L465.085,137.137z M617.52,149.902
		c0.117,0,0.23,0,0.349,0c8.397,0.09,16.25,3.539,22.102,9.707c5.992,6.313,9.22,14.942,8.853,23.672
		c-1.043,25.031-21.16,47.563-29.763,56.086c-0.848,0.84-2.227,0.84-3.065,0.004c-8.965-8.883-29.813-32.328-29.813-58.125
		c0-8.437,3.306-16.351,9.302-22.285C601.395,153.109,609.207,149.902,617.52,149.902L617.52,149.902z M642.164,269.695
		c-4.156,2.797-9,4.274-14.008,4.274c-9.867,0-18.859-5.821-22.902-14.821l-10.926-24.332c-0.957-2.132-1.771-4.312-2.441-6.531
		c5.543,7.875,11.478,14.391,16.195,19.067c2.602,2.578,6.02,3.867,9.438,3.867s6.841-1.293,9.445-3.871
		c3.555-3.528,7.853-8.149,12.152-13.641c3.84,10.551,6.602,21.402,8.258,32.484L642.164,269.695z"/>
	<path fill="#007F3D" d="M617.523,206.336c13.065,0,23.698-10.633,23.698-23.703c0-13.071-10.633-23.703-23.698-23.703
		c-13.07,0-23.703,10.632-23.703,23.703C593.82,195.703,604.453,206.336,617.523,206.336L617.523,206.336z M617.523,170.164
		c6.875,0,12.465,5.594,12.465,12.469s-5.59,12.465-12.465,12.465s-12.47-5.59-12.47-12.465S610.648,170.164,617.523,170.164
		L617.523,170.164z"/>
	<path fill="#007F3D" d="M531.883,210.824c-7.965-8.394-18.664-13.086-30.129-13.211c-0.16,0-0.316,0-0.473,0
		c-11.289,0-21.907,4.36-29.938,12.309c-6.078,6.008-10.114,13.516-11.773,21.695c-12.902-0.558-25.418,5.43-33.023,16.176
		l-18.875,26.66c-7.363,10.406-8.281,23.891-2.598,35.107c-2.398,5.385-3.672,11.26-3.672,17.338
		c0,24.741,15.164,46.516,27.301,59.979l-1.223,33.203c-0.292,7.922,3.387,15.391,9.844,19.988c4.059,2.891,8.836,4.34,13.617,4.34
		c4.688,0,9.379-1.396,13.395-4.185l51.704-35.922c8.051-5.594,15.004-12.483,20.668-20.483l15.609-22.047
		c1.793-2.535,1.19-6.039-1.341-7.832c-2.53-1.793-6.038-1.195-7.827,1.34l-15.609,22.047c-4.91,6.934-10.934,12.906-17.91,17.75
		L457.925,431c-4.234,2.938-9.891,2.906-14.086-0.082c-3.367-2.395-5.285-6.293-5.133-10.422l0.914-24.359
		c1.406,0.48,2.879,0.734,4.352,0.734c3.422,0,6.843-1.289,9.445-3.871c11.854-11.75,31.918-35.633,33.083-63.598
		c0.488-11.75-3.855-23.367-11.926-31.871c-7.965-8.395-18.668-13.086-30.133-13.211c-11.43-0.137-22.266,4.25-30.41,12.309
		c-0.379,0.375-0.742,0.762-1.105,1.148c-0.926-5.793,0.383-11.84,3.914-16.832l18.875-26.66
		c5.32-7.515,14.035-11.726,23.051-11.445c1.207,27.812,21.082,51.57,33.078,63.457c2.603,2.578,6.021,3.867,9.438,3.867
		c3.422,0,6.84-1.289,9.444-3.871c4.892-4.848,11.177-11.766,16.957-20.18l29.148,20.633c3.676,2.604,6.121,6.482,6.883,10.93
		c0.758,4.441-0.258,8.914-2.859,12.59l-4.102,5.789c-1.789,2.531-1.191,6.039,1.34,7.832c0.988,0.695,2.121,1.031,3.242,1.031
		c1.762,0,3.496-0.824,4.59-2.371l4.099-5.789c4.336-6.125,6.026-13.578,4.762-20.977c-1.266-7.402-5.336-13.863-11.465-18.203
		l-29.715-21.035c5.52-10.035,9.688-21.547,10.202-33.848C544.301,230.945,539.953,219.328,531.883,210.824L531.883,210.824z
		 M443.977,295.555c0.113,0,0.23,0,0.348,0c8.398,0.09,16.246,3.539,22.102,9.707c5.988,6.313,9.215,14.941,8.852,23.672
		c-1.043,25.031-21.164,47.563-29.766,56.086c-0.844,0.841-2.219,0.841-3.063,0.005c-8.965-8.884-29.813-32.324-29.813-58.125
		c0-8.438,3.301-16.353,9.297-22.286C427.848,298.762,435.664,295.555,443.977,295.555L443.977,295.555z M502.82,298.313
		c-0.845,0.84-2.224,0.84-3.066,0.004c-8.965-8.883-29.813-32.329-29.813-58.125c0-8.437,3.305-16.351,9.301-22.285
		c5.915-5.851,13.73-9.058,22.043-9.058c0.113,0,0.229,0,0.344,0c8.402,0.09,16.25,3.539,22.105,9.707
		c5.987,6.312,9.215,14.941,8.852,23.672C531.539,267.258,511.422,289.789,502.82,298.313L502.82,298.313z"/>
	<path fill="#007F3D" d="M519.371,235.961c-3.105,0-5.617,2.516-5.617,5.617c0,6.875-5.594,12.469-12.469,12.469
		s-12.469-5.594-12.469-12.469s5.594-12.469,12.469-12.469c0.832,0,1.668,0.086,2.473,0.246c3.047,0.61,6.004-1.359,6.617-4.398
		c0.609-3.043-1.359-6.004-4.402-6.617c-1.535-0.309-3.112-0.465-4.688-0.465c-13.07,0-23.704,10.633-23.704,23.703
		c0,13.07,10.633,23.703,23.704,23.703c13.07,0,23.703-10.633,23.703-23.703C524.988,238.477,522.473,235.961,519.371,235.961
		L519.371,235.961z"/>
	<path fill="#007F3D" d="M443.977,351.988c13.07,0,23.703-10.635,23.703-23.703c0-13.07-10.633-23.703-23.703-23.703
		c-13.066,0-23.699,10.633-23.699,23.703C420.276,341.354,430.906,351.988,443.977,351.988L443.977,351.988z M443.977,315.816
		c6.875,0,12.469,5.594,12.469,12.469s-5.594,12.465-12.469,12.465s-12.465-5.59-12.465-12.465S437.102,315.816,443.977,315.816
		L443.977,315.816z"/>
	<path fill="#007F3D" d="M386.02,131.965c0-13.07-10.633-23.703-23.704-23.703c-13.066,0-23.699,10.633-23.699,23.703
		c0,13.07,10.633,23.699,23.699,23.699C375.387,155.664,386.02,145.035,386.02,131.965L386.02,131.965z M349.852,131.965
		c0-6.875,5.593-12.469,12.464-12.469c6.875,0,12.469,5.594,12.469,12.469s-5.594,12.465-12.469,12.465
		C355.444,144.43,349.852,138.84,349.852,131.965L349.852,131.965z"/>
</g>
</svg>
