<?xml version="1.0" encoding="utf-8"?>
<!-- Generator: Adobe Illustrator 16.0.0, SVG Export Plug-In . SVG Version: 6.00 Build 0)  -->
<!DOCTYPE svg PUBLIC "-//W3C//DTD SVG 1.1//EN" "http://www.w3.org/Graphics/SVG/1.1/DTD/svg11.dtd">
<svg version="1.1" id="Layer_1" xmlns="http://www.w3.org/2000/svg" xmlns:xlink="http://www.w3.org/1999/xlink" x="0px" y="0px"
	 width="960px" height="560px" viewBox="0 0 960 560" enable-background="new 0 0 960 560" xml:space="preserve">
<path opacity="0.9" fill="#007F3D" enable-background="new    " d="M636.817,484.817c-0.892-2.857-3.038-4.921-4.699-7.271
	c-8.757-12.394-17.604-24.722-26.424-37.071c-8.82-12.351-12.017-25.685-6.639-40.312c6.523-17.747,25.457-29.078,43.716-26.377
	c19.46,2.879,34.539,19.127,35.436,38.503c0.485,10.513-3.168,19.791-9.26,28.256c-9.798,13.612-19.494,27.298-29.222,40.962
	c-0.758,1.064-1.407,2.205-2.108,3.312C637.351,484.817,637.084,484.817,636.817,484.817z"/>
<path opacity="0.9" fill="#007F3D" enable-background="new    " d="M476.803,75.183c4.733,1.769,8.68,4.408,10.316,9.516
	c2.316,7.224-1.592,14.961-8.725,17.332c-7.114,2.364-15.1-1.595-17.406-8.634c-2.434-7.425,1.465-15.021,8.981-17.452
	c0.5-0.162,1.042-0.145,1.231-0.762C473.069,75.183,474.936,75.183,476.803,75.183z"/>
<path opacity="0.9" fill="#007F3D" enable-background="new    " d="M469.648,389.566c-13.336-18.784-26.744-37.517-39.981-56.369
	c-8.711-12.408-18.27-24.246-24.973-38.008c-21.157-43.438-5.689-96.883,35.493-122.198
	c44.335-27.255,100.612-15.444,130.144,27.312c21.979,31.823,22.312,74.441-0.162,107.48c-18.2,26.759-37.382,52.85-56.117,79.245
	c-0.764,1.075-1.405,2.237-2.104,3.358c-0.928,3.772-3.803,6.353-5.879,9.396c-3.902,5.722-8.015,11.301-12.051,16.932
	c-2.526,3.525-3.288,3.553-5.789,0.141c-5.749-7.845-11.351-15.796-17.008-23.704C470.423,392.038,469.917,390.873,469.648,389.566z
	"/>
<path opacity="0.4" fill="#06DC8B" enable-background="new    " d="M469.648,389.566c6.39,8.847,12.843,17.648,19.127,26.569
	c1.669,2.37,2.431,3.153,4.497,0.146c6.021-8.771,12.422-17.28,18.674-25.894c14.957,1.526,28.905,5.938,40.658,15.566
	c9.338,7.649,8.477,20.762-1.616,28.061c-11.114,8.037-23.869,11.793-37.263,14.098c-10.714,1.843-21.467,1.91-32.18,1.378
	c-16.422-0.815-32.424-4.021-46.61-12.93c-6.234-3.913-11.802-8.672-11.802-17.229c-0.001-9.067,5.945-13.86,12.644-17.925
	c9.989-6.063,21.037-9.301,32.54-11.077C468.789,390.256,469.206,389.829,469.648,389.566z"/>
<path opacity="0.9" fill="#007F3D" enable-background="new    " d="M303.79,414.337c0.716-17.407,8.873-30.278,24.741-37.341
	c14.861-6.613,29.262-4.47,41.915,5.903c16.507,13.532,20.19,35.618,8.421,53.459c-10.405,15.771-21.751,30.924-32.634,46.384
	c-1.276,1.813-2.029,1.468-3.148-0.124c-10.951-15.573-22.078-31.025-32.869-46.707C305.833,429.544,303.823,422.207,303.79,414.337
	z"/>
<path opacity="0.9" fill="#007F3D" enable-background="new    " d="M587.233,141.375c-0.011,13.13-10.401,23.455-23.568,23.417
	c-12.758-0.036-23.197-10.458-23.167-23.464c0.033-13.467,10.366-23.541,23.62-23.458
	C578.404,117.959,587.498,129.663,587.233,141.375z"/>
<path opacity="0.9" fill="#007F3D" enable-background="new    " d="M346.255,216.171c-0.002-8.73,6.898-15.712,15.607-15.79
	c8.792-0.079,15.909,7.104,15.83,15.98c-0.076,8.632-7.198,15.661-15.82,15.614C353.246,231.928,346.258,224.856,346.255,216.171z"
	/>
<path opacity="0.9" fill="#007F3D" enable-background="new    " d="M322.432,180.185c-6.05,0.018-10.971-4.765-11.071-10.76
	c-0.099-5.882,4.86-10.957,10.806-11.062c6.15-0.107,11.332,4.945,11.277,10.997C333.391,175.338,328.478,180.167,322.432,180.185z"
	/>
<path opacity="0.9" fill="#007F3D" enable-background="new    " d="M621.824,215.897c4.473-0.03,8.197,3.597,8.247,8.029
	c0.049,4.41-3.642,8.134-8.102,8.175c-4.439,0.04-8.208-3.62-8.263-8.027C613.653,219.718,617.416,215.928,621.824,215.897z"/>
<path opacity="0.9" fill="#007F3D" enable-background="new    " d="M660.239,294.409c-4.564-0.109-7.645-3.627-7.452-8.515
	c0.17-4.375,3.72-7.612,8.198-7.481c3.967,0.116,7.919,4.293,7.765,8.205C668.575,291.037,664.771,294.518,660.239,294.409z"/>
<path opacity="0.9" fill="#007F3D" enable-background="new    " d="M287.09,283.285c2.765-0.085,5.42,2.347,5.613,5.14
	c0.201,2.913-2.385,5.75-5.322,5.839c-2.927,0.088-5.662-2.606-5.631-5.548C281.779,285.924,284.289,283.372,287.09,283.285z"/>
<path opacity="0.9" fill="#007F3D" enable-background="new    " d="M360.649,259.04c1.325,4.518-1.803,3.938-4.466,4.192
	c-5.005,0.479-2.729-3.333-3.251-5.408c-0.736-2.929,0.85-3.298,3.46-3.481C360.297,254.068,361.506,255.514,360.649,259.04z"/>
<path opacity="0.9" fill="#007F3D" enable-background="new    " d="M569.915,367.097c-1.116-1.636-2.486-3.506-3.685-5.48
	c-0.341-0.563,5.455-5.432,6.063-5.007c1.963,1.367,3.295,3.366,4.512,5.395C577.063,362.43,571.184,367.097,569.915,367.097z"/>
<path opacity="0.9" fill="#007F3D" enable-background="new    " d="M534.761,131.463c-2.18-1.559-5.997-0.544-6.479-3.539
	c-0.286-1.785,0.069-5.614,2.468-5.794c2.295-0.172,6.104,0.375,6.941,2.991C538.236,126.822,537.051,129.835,534.761,131.463z"/>
<path opacity="0.9" fill="#007F3D" enable-background="new    " d="M431.031,138.574c-2.161-1.534-2.702-3.945-3.744-5.987
	c-0.325-0.638,5.661-4.519,6.761-4.062c2.439,1.016,3.446,3.975,3.222,5.749C436.915,137.072,433.104,136.803,431.031,138.574z"/>
<path opacity="0.9" fill="#007F3D" enable-background="new    " d="M402.706,157.473c-1.288-1.497-2.843-3.248-4.313-5.067
	c-0.235-0.292,5.378-5.565,5.938-5.605c0.568-0.04,4.888,4.906,4.854,5.558C409.159,152.86,403.806,157.465,402.706,157.473z"/>
<path opacity="0.9" fill="#007F3D" enable-background="new    " d="M629.025,258.457c-1.117,1.213,1.883,4.997-2.5,4.424
	c-2.05-0.268-5.694,1.402-5.235-3.451c0.644-6.811-0.71-5.462,4.76-5.881C630.431,253.214,628.732,256.211,629.025,258.457z"/>
<path opacity="0.9" fill="#007F3D" enable-background="new    " d="M627.69,274.383c-1.962,1.218,1.945,6.219-3.253,5.615
	c-1.813-0.211-5.547,0.964-4.954-2.985c0.38-2.541-0.806-7.271,4.784-5.69C625.752,271.741,628.474,270.804,627.69,274.383z"/>
<path opacity="0.9" fill="#007F3D" enable-background="new    " d="M353.933,241.175c0.707-0.749-2.092-4.692,2.187-3.929
	c1.919,0.343,6.352-1.453,5.18,3.44c-0.462,1.931,1.646,6.119-3.426,5.283C355.476,245.574,351.809,246.636,353.933,241.175z"/>
<path opacity="0.9" fill="#007F3D" enable-background="new    " d="M367.19,294.393c-1.208,2.576-4.038,3.106-5.816,2.965
	c-3.579-0.287-3.099-4.258-3.352-6.504c-0.356-3.153,3.404-2.529,5.077-2.633C367.265,287.965,365.284,292.454,367.19,294.393z"/>
<path opacity="0.9" fill="#007F3D" enable-background="new    " d="M611.044,321.785c0.049,1.28-3.979,7.396-4.449,7.434
	c-0.873,0.071-6.026-3.866-5.689-4.389c1.38-2.143,1.831-5.663,4.456-5.979C607.211,318.631,609.354,320.841,611.044,321.785z"/>
<path opacity="0.9" fill="#007F3D" enable-background="new    " d="M396.703,163.29c0.097,0.862-4.564,6.371-5.075,6.191
	c-2.304-0.813-3.804-2.729-5.465-4.375c-0.421-0.417,4.993-6.755,5.442-6.396C393.45,160.187,395.138,161.857,396.703,163.29z"/>
<path opacity="0.9" fill="#007F3D" enable-background="new    " d="M610.914,186.385c1.956,1.646,3.556,4.342,3.695,6.692
	c0.144,2.402-3.47,2.451-5.398,3.568c-0.715,0.413-4.462-5.112-4.368-6.383C604.89,189.619,609.616,186.397,610.914,186.385z"/>
<path opacity="0.9" fill="#007F3D" enable-background="new    " d="M409.848,356.715c1.065-0.005,6.446,4.43,6.166,4.937
	c-1.123,2.03-1.961,4.367-4.223,5.462c-0.658,0.316-6.551-4.618-6.258-5.098C406.763,360.006,408.127,358.074,409.848,356.715z"/>
<path opacity="0.9" fill="#007F3D" enable-background="new    " d="M360.059,270.88c3.106,1.658,2.54,4.765,2.513,6.938
	c-0.046,3.854-4.323,2.847-5.803,2.598c-3.231-0.543-2.228-4.307-2.268-6.544C354.432,270.036,358.423,272.884,360.059,270.88z"/>
<path opacity="0.9" fill="#007F3D" enable-background="new    " d="M466.792,117.958c3.168,0.892,2.714,3.918,2.59,5.695
	c-0.278,3.978-4.316,2.945-6.441,2.985c-3.25,0.063-2.649-3.918-2.542-5.577C460.641,117.335,464.72,119.687,466.792,117.958z"/>
<path opacity="0.9" fill="#007F3D" enable-background="new    " d="M372.66,197.727c-1.94-1.593-5.708-1.515-5.589-3.805
	c0.121-2.333,1.473-5.323,4.04-6.702c0.997-0.536,5.995,3.344,5.581,4.071C375.46,193.451,375.023,196.181,372.66,197.727z"/>
<path opacity="0.9" fill="#007F3D" enable-background="new    " d="M624.688,290.135c-1.744,2.504-0.493,6.506-3.631,6.961
	c-1.532,0.223-5.854,0.238-5.558-3.178c0.174-2.011-0.442-5.867,3.087-6.113C620.495,287.672,623.114,288.033,624.688,290.135z"/>
<path opacity="0.9" fill="#007F3D" enable-background="new    " d="M375.868,329.378c-0.594,0.031-4.896-5.722-4.602-6.515
	c0.918-2.479,3.7-3.788,5.484-3.727c2.682,0.094,3.06,3.694,4.529,5.713C381.685,325.407,376.97,329.322,375.868,329.378z"/>
<path opacity="0.9" fill="#007F3D" enable-background="new    " d="M482.097,123.933c-4.284,1.398-4.298-1.339-4.518-4.197
	c-0.426-5.536,3.979-2.527,6.072-3.398c2.427-1.009,2.543,0.941,2.731,2.834C486.726,122.597,486.408,125.108,482.097,123.933z"/>
<path opacity="0.9" fill="#007F3D" enable-background="new    " d="M449.726,121.992c3.215,1.145,3.319,4.114,3.198,5.9
	c-0.233,3.446-4.174,3.24-6.286,3.395c-2.717,0.199-3.126-3.594-3.06-5.349C443.72,122.202,448.225,124.332,449.726,121.992z"/>
<path opacity="0.9" fill="#007F3D" enable-background="new    " d="M439.063,373.627c2.194,1.833,6.074,1.091,6.428,4.062
	c0.214,1.796-0.285,5.62-2.824,5.612c-2.299-0.007-6.114-0.684-6.748-3.392C435.521,378.211,436.965,375.301,439.063,373.627z"/>
<path opacity="0.9" fill="#007F3D" enable-background="new    " d="M543.402,373.553c1.813,1.774,3.383,4.351,3.007,6.162
	c-0.601,2.893-4.393,3.479-6.671,3.455c-2.62-0.029-3.139-3.923-2.845-5.659C537.372,374.688,541.171,375.212,543.402,373.553z"/>
<path opacity="0.9" fill="#007F3D" enable-background="new    " d="M615.731,212.713c-2.488-1.939-3.371-4.762-3.372-6.938
	c-0.002-2.735,3.73-3.384,5.447-3.193c3.243,0.36,3.427,4.317,3.517,6.546C621.438,211.971,617.458,210.718,615.731,212.713z"/>
<path opacity="0.9" fill="#007F3D" enable-background="new    " d="M369.074,303.421c2.696,1.759,3.77,4.57,3.83,6.718
	c0.079,2.819-3.938,3.816-5.516,3.575c-2.817-0.433-3.527-4.282-3.691-6.554C363.495,304.387,367.6,305.521,369.074,303.421z"/>
<path opacity="0.9" fill="#007F3D" enable-background="new    " d="M514.821,118.135c1.64,1.424,6.01-1.146,5.836,3.187
	c-0.066,1.655,1.129,6.09-3.34,4.961c-1.906-0.482-5.962,1.516-5.47-3.313C512.335,118.203,512.443,117.95,514.821,118.135z"/>
<path opacity="0.9" fill="#007F3D" enable-background="new    " d="M381.156,183.009c-1.854-1.292-4.141-2.143-5.67-4.039
	c-0.287-0.355,4.139-6.594,4.676-6.715c0.654-0.147,5.724,3.733,5.761,4.409C385.961,177.349,381.863,182.938,381.156,183.009z"/>
<path opacity="0.9" fill="#007F3D" enable-background="new    " d="M614.925,313.938c-2.03-1.484-4.859-1.393-5.905-3.765
	c-0.536-1.219,3.136-6.991,3.86-6.592c1.945,1.071,5.568,0.763,5.575,3.233C618.461,309.167,617.193,312.014,614.925,313.938z"/>
<path opacity="0.9" fill="#007F3D" enable-background="new    " d="M601.413,171.525c1.858,1.69,4.065,3.993,4.401,6.365
	c0.317,2.243-3.256,3.912-5.025,3.989c-2.731,0.118-3.386-3.414-4.868-5.42C595.479,175.858,599.947,171.643,601.413,171.525z"/>
<path opacity="0.9" fill="#007F3D" enable-background="new    " d="M385.962,343.896c-0.222-3.369-7.481-3.913-3.392-8.307
	c3.509-3.77,3.776-3.313,7.067,0.547C394.34,341.651,386.62,340.874,385.962,343.896z"/>
<path opacity="0.9" fill="#007F3D" enable-background="new    " d="M430.441,370.71c-1.174,1.777-1.519,4.319-3.619,5.72
	c-0.524,0.352-6.99-3.941-6.771-4.364c1.07-2.063,1.714-4.508,3.93-5.701C424.793,365.926,430.361,369.682,430.441,370.71z"/>
<path opacity="0.9" fill="#007F3D" enable-background="new    " d="M562.323,371.823c0.008,0.69-5.859,4.772-6.675,4.378
	c-2.328-1.127-2.715-3.688-3.68-5.771c-0.293-0.633,5.25-4.249,6.309-4.188C558.953,366.281,562.313,370.916,562.323,371.823z"/>
<path opacity="0.9" fill="#515151" enable-background="new    " d="M590.378,168.796c-0.596,0.066-5.388-4.629-5.495-5.383
	c-0.1-0.702,4.252-5.297,5.021-5.3c0.492-0.003,5.54,5.441,5.57,6.01C595.503,164.631,591.041,168.722,590.378,168.796z"/>
<path opacity="0.9" fill="#007F3D" enable-background="new    " d="M418.977,136.721c1.685,1.227,2.486,3.471,3.602,5.443
	c0.344,0.608-5.176,5.223-6.016,4.831c-2.248-1.049-2.998-3.496-4.347-5.375C411.897,141.175,417.503,136.85,418.977,136.721z"/>
<path opacity="0.9" fill="#007F3D" enable-background="new    " d="M403.048,351.329c-1.515,1.516-2.631,3.737-4.905,4.735
	c-0.598,0.263-6.018-5.27-5.688-5.705c1.417-1.876,2.846-3.821,5.117-4.74C398.192,345.369,403.1,350.406,403.048,351.329z"/>
<path opacity="0.9" fill="#007F3D" enable-background="new    " d="M601.435,336.906c-0.022,0.916-4.954,6.54-5.377,6.302
	c-2.052-1.157-3.95-2.575-5.284-4.528c-0.407-0.595,4.67-6.232,5.254-5.9C598.059,333.935,600.021,335.224,601.435,336.906z"/>
<path opacity="0.9" fill="#007F3D" enable-background="new    " d="M620.708,240.185c-1.447-5.081,3.253-3.882,5.326-3.836
	c4.063,0.091,1.993,3.981,2.512,6.087c0.982,3.984-2.604,2.242-4.17,2.483C621.066,245.43,621.033,245.218,620.708,240.185z"/>
<path opacity="0.9" fill="#007F3D" enable-background="new    " d="M499.524,123.932c-3.354,0.515-5.366-0.2-4.61-4.102
	c0.357-1.844-0.393-4.6,2.904-3.535c1.978,0.64,5.744-1.649,5.692,2.476C503.483,120.963,504.99,125.716,499.524,123.932z"/>
<path opacity="0.9" fill="#007F3D" enable-background="new    " d="M589.764,349.953c0.017,1.079-5.189,6.3-5.772,5.977
	c-2.108-1.17-3.55-3.073-4.774-5.093c-0.307-0.505,4.914-5.574,5.527-5.312C586.975,346.48,588.288,348.487,589.764,349.953z"/>
<path opacity="0.9" fill="#007F3D" enable-background="new    " d="M660.28,211.253c-1.907-0.004-3.348-1.124-3.514-3.748
	c-0.172-2.697,1.395-4.024,3.726-4.17c2.44-0.153,4.073,1.489,4.177,3.834C664.77,209.464,663.613,211.247,660.28,211.253z"/>
<path fill="#FEFEFE" d="M637.788,399.262c8.18,0.256,14.854,7.243,14.677,15.364c-0.182,8.369-7.286,15.167-15.559,14.89
	c-8.388-0.281-14.816-7.244-14.563-15.771C622.585,405.594,629.61,399.006,637.788,399.262z"/>
<path fill="#FEFEFE" d="M422.771,253.742c0.611-39.219,32.402-68.532,69.019-67.653c39.28,0.943,68.426,31.853,67.387,70.393
	c-1.015,37.601-32.533,66.968-70.722,65.894C452.104,321.353,421.774,289.661,422.771,253.742z"/>
<path fill="#FEFEFE" d="M329.604,414.56c-0.084-8.352,6.802-15.319,15.124-15.308c8.128,0.013,15.008,6.813,15.137,14.962
	c0.131,8.236-6.91,15.332-15.191,15.313C336.511,429.506,329.686,422.728,329.604,414.56z"/>
<path opacity="0.9" fill="#007F3D" enable-background="new    " d="M491.218,304.141c-27.438,0.196-50.209-22.457-50.211-49.952
	c-0.002-27.166,22.617-50.342,49.826-50.019c30.707,0.365,50.015,24.921,50.095,49.637
	C541.017,281.466,518.918,303.943,491.218,304.141z"/>
<path fill="#FDFDFD" d="M456.192,251.087c-0.268,0-0.533,0-0.801,0c-8.668,0-8.695-0.008-6.436-8.338
	c1.192-4.395,3.141-8.461,5.54-12.331c0.824-1.33,1.638-1.773,3.25-1.259c2.904,0.926,6.869,0.671,8.594,2.554
	c1.782,1.946-0.563,5.619-0.768,8.579c-0.073,1.057-0.317,2.107-0.555,3.145c-0.556,2.435,0.958,5.896-1.033,7.15
	c-1.951,1.229-5.142,0.489-7.787,0.613C456.195,251.162,456.193,251.125,456.192,251.087z"/>
<path fill="#FDFDFD" d="M525.685,251.087c-7.988,0-7.937-0.006-8.829-7.851c-0.346-3.034-1.012-6.03-1.479-9.051
	c-0.133-0.862-0.901-2.216,0.1-2.545c3.389-1.114,6.854-2.362,10.356-2.607c1.95-0.136,2.556,2.799,3.505,4.468
	c2.586,4.545,4.012,9.516,4.928,14.661c0.406,2.284-0.189,3.178-2.591,2.961C529.692,250.944,527.682,251.087,525.685,251.087z"/>
<path fill="#FEFEFE" d="M526.295,257.445c0.398,0,0.797,0,1.195,0c7.75,0,7.718-0.009,5.697,7.745
	c-1.183,4.536-3.122,8.708-5.558,12.693c-0.813,1.333-1.659,1.831-3.226,1.368c-2.537-0.751-5.118-1.36-7.703-1.932
	c-1.487-0.329-1.865-1.008-1.497-2.509c1.172-4.78,1.884-9.652,2.074-14.563c0.087-2.224,0.806-3.045,3.04-2.841
	C522.296,257.588,524.302,257.445,526.295,257.445z"/>
<path fill="#FEFEFE" d="M447.803,259.539c-0.417-1.394,0.159-2.185,2.215-2.127c4.112,0.115,8.233,0.12,12.346-0.002
	c2.021-0.06,2.461,0.859,2.427,2.619c-0.097,4.943,0.893,9.78,2.011,14.538c0.508,2.162-0.271,2.555-1.893,2.85
	c-0.913,0.166-1.836,0.291-2.731,0.523c-7.085,1.833-7.059,1.826-10.29-4.686C449.804,269.059,448.448,264.659,447.803,259.539z"/>
<path fill="#FDFDFD" d="M487.913,242.697c0,8.39,0,8.39-8.148,8.39c-9.313,0-9.27,0.007-7.942-9.359
	c0.393-2.771,0.15-6.05,1.853-8.045c1.984-2.326,5.157-0.057,7.81-0.012c6.433,0.106,6.43,0.257,6.43,6.63
	C487.913,241.1,487.913,241.898,487.913,242.697z"/>
<path fill="#FDFDFD" d="M502.487,251.087c-8.193,0-8.207,0-8.186-8.285c0.007-2.782-0.854-6.178,0.425-8.183
	c1.423-2.229,5.131-0.769,7.82-1.128c6.188-0.826,6.228-0.752,7.21,5.441c0.479,3.011,0.753,6.057,1.261,9.063
	c0.418,2.482-0.453,3.386-2.958,3.129C506.221,250.935,504.346,251.087,502.487,251.087z"/>
<path fill="#FDFDFD" d="M487.913,266.363c0,7.817,0,7.817-7.849,8.673c-6.979,0.761-7.091,0.69-7.989-6.188
	c-0.36-2.755-0.547-5.532-0.945-8.281c-0.338-2.335,0.256-3.357,2.884-3.182c3.564,0.237,7.169,0.244,10.733-0.001
	c2.776-0.191,3.428,0.943,3.199,3.412C487.775,262.637,487.913,264.507,487.913,266.363z"/>
<path fill="#FEFEFE" d="M494.295,265.664c0-8.219,0-8.219,8.249-8.219c8.904,0,8.904,0,7.813,8.702
	c-1.189,9.478-1.189,9.475-10.48,8.614c-0.795-0.073-1.609-0.211-2.39-0.117c-2.65,0.317-3.502-0.845-3.229-3.394
	C494.454,269.408,494.295,267.527,494.295,265.664z"/>
<path fill="#FBFBFB" d="M487.918,297.08c-6.391-2.939-9.122-8.186-11.651-13.587c-0.502-1.073-0.221-1.808,1.117-1.832
	c0.267-0.005,0.532-0.026,0.795-0.063c9.738-1.373,9.738-1.373,9.738,8.416C487.918,292.143,487.918,294.27,487.918,297.08z"/>
<path fill="#FCFCFC" d="M487.912,211.308c0,5.035,0.039,9.624-0.016,14.211c-0.035,3.123-2.485,1.783-3.817,1.691
	c-2.712-0.188-5.752,0.754-7.979-1.69c-0.121-0.133,0.217-0.722,0.386-1.076C478.995,219.188,481.746,214.14,487.912,211.308z"/>
<path fill="#FCFCFC" d="M506.347,281.803c-2.46,6.374-5.415,11.79-12.048,15.373c0-5.174,0.042-9.846-0.021-14.516
	c-0.025-1.826,1.061-1.831,2.341-1.719C499.65,281.21,502.682,281.479,506.347,281.803z"/>
<path fill="#FDFDFD" d="M494.294,211.272c6.596,3.447,9.484,8.908,11.882,14.788c-0.354,0.22-0.458,0.325-0.581,0.355
	c-10.776,2.622-11.301,2.229-11.301-8.47C494.294,215.958,494.294,213.97,494.294,211.272z"/>
<path fill="#F9F9FA" d="M507.383,214.277c5.34,1.755,9.828,4.638,13.901,8.682c-2.275,1.843-5.009,1.635-7.446,2.267
	c-1.225,0.317-1.484-0.866-1.821-1.681C510.703,220.374,509.249,217.279,507.383,214.277z"/>
<path fill="#F9F9F9" d="M474.641,213.957c-1.937,4.045-3.459,7.174-4.93,10.327c-0.413,0.885-0.984,1.101-1.889,0.881
	c-2.27-0.546-4.666-0.634-7.2-2.049C464.588,219.173,468.848,216.282,474.641,213.957z"/>
<path fill="#FAFAFA" d="M506.95,294.82c1.726-3.297,3.327-5.631,4.199-8.211c1.096-3.246,2.823-4.021,5.879-2.787
	c1.327,0.535,2.789,0.742,4.579,1.199C517.552,289.456,512.781,292.208,506.95,294.82z"/>
<path fill="#FAFAFA" d="M475.188,294.729c-5.883-2.34-10.433-5.287-14.607-9.535c0.993-0.375,1.661-0.688,2.362-0.883
	c5.966-1.666,5.928-1.642,8.647,4.029C472.529,290.298,473.717,292.136,475.188,294.729z"/>
</svg>
