<?xml version="1.0" encoding="utf-8"?>
<!-- Generator: Adobe Illustrator 16.0.0, SVG Export Plug-In . SVG Version: 6.00 Build 0)  -->
<!DOCTYPE svg PUBLIC "-//W3C//DTD SVG 1.1//EN" "http://www.w3.org/Graphics/SVG/1.1/DTD/svg11.dtd">
<svg version="1.1" id="Layer_1" xmlns="http://www.w3.org/2000/svg" xmlns:xlink="http://www.w3.org/1999/xlink" x="0px" y="0px"
	 width="960px" height="560px" viewBox="0 0 960 560" enable-background="new 0 0 960 560" xml:space="preserve">
<g>
	<g>
		<defs>
			<rect id="SVGID_1_" x="233" y="57" width="494" height="446"/>
		</defs>
		<clipPath id="SVGID_2_">
			<use xlink:href="#SVGID_1_"  overflow="visible"/>
		</clipPath>
		<path clip-path="url(#SVGID_2_)" fill="#007F3D" d="M674.906,57H355.469c-27.723,0-50.278,22.344-50.278,49.719L303.133,388
			h-62.34c-4.418,0-7.793,3.906-7.793,8.324v38.711c0,36.238,29,65.875,64,67.5V503h269v-0.523c2,0.082,3.211,0.523,4.586,0.523
			h0.191c37.328-0.219,67.418-30.645,67.223-67.973V189h81.207c4.418,0,7.793-4,7.793-8.414v-71.027
			C727.051,80.691,703.773,57.207,674.906,57L674.906,57z M300.5,487h-0.055C271.988,487,249,463.48,249,435.027V404h254v30.895
			c-0.063,18.009,7.051,35.298,19.766,48.048c1.353,1.358,2.767,2.059,4.211,4.059L300.5,487L300.5,487z M622,435.02
			c0,28.462-22.766,51.98-51.234,51.98h-0.164c-28.608-0.207-51.668-23.492-51.602-52.102v-38.574c0.023-4.48-3.52-8.168-8-8.324
			H319.133l2.058-281.227c0-18.605,15.375-33.773,34.278-33.773h281.668C628.02,83,622,95.652,622,109.773V435.02z M711,109.699V173
			h-73v-63.242C638,89.734,654.656,73,674.672,73h0.223c20.066,0.199,36.199,16.57,36.105,36.641V109.699z"/>
	</g>
</g>
<path fill="#007F3D" d="M420.855,253.914l41.246,28.199c2.691,1.854,6.25,1.854,8.941,0l41.121-28.191
	C526.449,244.176,537,223.801,537,206.523v-57.054c0.086-3.016-1.578-5.813-4.266-7.184l-62.801-30.89
	c-2.203-1.094-4.789-1.094-6.992,0l-62.684,30.804c-2.688,1.371-4.348,4.168-4.258,7.184v57.14
	C396,223.801,406.574,244.176,420.855,253.914L420.855,253.914z M412,154.375l54.5-26.891l54.5,26.965v52.074
	c0,12.051-7.898,27.379-17.863,34.172l-36.729,25.121l-36.586-25.117c-9.965-6.801-17.82-22.125-17.82-34.176L412,154.375
	L412,154.375z"/>
<path fill="#007F3D" d="M452.969,218.602c1.492,1.523,3.531,2.386,5.664,2.398h0.02c2.125-0.008,4.16-0.859,5.656-2.367
	l31.824-31.836c3.129-3.125,3.129-8.195,0.004-11.32c-3.121-3.129-8.19-3.129-11.315-0.004l-26.141,26.136l-10.449-10.55
	c-3.113-3.141-8.18-3.164-11.32-0.051c-3.14,3.113-3.16,8.18-0.051,11.32L452.969,218.602z"/>
<path fill="#007F3D" d="M566,305H374c-4.418,0-8,3.582-8,8s3.582,8,8,8h192c4.418,0,8-3.582,8-8S570.418,305,566,305L566,305z"/>
<path fill="#007F3D" d="M566,342H374c-4.418,0-8,3.582-8,8s3.582,8,8,8h192c4.418,0,8-3.582,8-8S570.418,342,566,342L566,342z"/>
</svg>
